# xmcd
#
# Track frame offsets: 
#        150
#        15292
#        26510
#        43747
#        61710
#        80270
#        96547
#        111945
#        125932
#        140467
#        156187
#        170930
#        182032
#        195862
#        212720
#        228780
#        248540
#        264785
#        278817
#        292670
#        310602
#        325512
#
# Disc length: 4530 seconds
#
# Revision: 6
# Processed by: cddbd v1.5.2PL0 Copyright (c) Steve Scherf et al.
# Submitted via: ExactAudioCopy v1.0b1
#
DISCID=2011b016
DTITLE=Various Artist - Contemporary Country Vol. 17 The Late '80s Hot Hits
DYEAR=1993
DGENRE=Country
TTITLE0=George Strait - All My Ex's Live In Texas
TTITLE1=Patty Loveless - A Little Bit In Love
TTITLE2=Dwight Yoakam - I Sang Dixie
TTITLE3=T. Graham Brown - Don't Go To Strangers
TTITLE4=K.T. Oslin - 80's Ladies
TTITLE5=Keith Whitley - I'm No Stranger To The Rain
TTITLE6=Tanya Tucker - If It Don't Come Easy
TTITLE7=Steve Wariner - Lynda
TTITLE8=Holly Dunn - Love Someone Like Me
TTITLE9=Reba McEntire - One Promise Too Late
TTITLE10=Merle Haggard - Chill Factor
TTITLE11=Randy Travis - Too Gone Too Long
TTITLE12=Highway 101 - Whiskey If You Were A Woman
TTITLE13=Conway Twitty - She's Got A Single Thing In Mind
TTITLE14=Alabama - Fallin' Again
TTITLE15=Kathy Mattea - Goin' Gone
TTITLE16=Waylon Jennings - Rose In Paradise
TTITLE17=Sweethearts Of The Rodeo - Midnight Girl Sunset Town
TTITLE18=Oak Ridge Boys - Gonna Take A Lot Of River
TTITLE19=Shenandoah - Sunday In The South
TTITLE20=Lee Greenwood - Mornin' Ride
TTITLE21=Skip Ewing - Burnin' A Hole In My Heart
EXTD=
EXTT0=
EXTT1=
EXTT2=
EXTT3=
EXTT4=
EXTT5=
EXTT6=
EXTT7=
EXTT8=
EXTT9=
EXTT10=
EXTT11=
EXTT12=
EXTT13=
EXTT14=
EXTT15=
EXTT16=
EXTT17=
EXTT18=
EXTT19=
EXTT20=
EXTT21=
PLAYORDER=
